<svg version="1.1" xmlns="http://www.w3.org/2000/svg" xmlns:xlink="http://www.w3.org/1999/xlink" width="396.27313" height="133.38538" viewBox="0,0,396.27313,133.38538"><g transform="translate(-41.86345,-111.05998)"><g data-paper-data="{&quot;isPaintingLayer&quot;:true}" fill-rule="nonzero" stroke="none" stroke-width="1" stroke-linecap="butt" stroke-linejoin="miter" stroke-miterlimit="10" stroke-dasharray="" stroke-dashoffset="0" style="mix-blend-mode: normal"><path d="M100.71082,201.8673v-76.67187h19.40625c6.69792,0 11.90625,0.83854 15.625,2.51563c3.71875,1.66666 6.33334,4.28646 7.84375,7.85938c1.52084,3.5625 2.28125,8.18229 2.28125,13.85938v27.82813c0,5.73959 -0.76041,10.42709 -2.28125,14.0625c-1.51041,3.625 -4.10937,6.29166 -7.79687,8c-3.6875,1.69791 -8.84896,2.54688 -15.48437,2.54688zM117.66394,190.13292h2.64063c2.59375,0 4.45833,-0.38021 5.59375,-1.14062c1.13541,-0.76041 1.84375,-1.89584 2.125,-3.40625c0.28125,-1.51041 0.42188,-3.40104 0.42188,-5.67187v-33.42187c0,-2.27084 -0.17187,-4.09896 -0.51562,-5.48437c-0.34375,-1.39584 -1.08334,-2.40625 -2.21875,-3.03125c-1.13541,-0.63541 -2.96875,-0.95312 -5.5,-0.95312h-2.54687z" fill="#004cad"/><path d="M374.76676,201.8673v-76.67187h21.10938c5.17708,0 9.65625,0.56771 13.4375,1.70313c3.79167,1.13541 6.74479,3.17188 8.85938,6.10938c2.11458,2.9375 3.17188,7.08334 3.17188,12.4375c0,3.15625 -0.25521,5.96875 -0.76562,8.4375c-0.5,2.45834 -1.42708,4.58854 -2.78125,6.39063c-1.35417,1.79166 -3.29687,3.28646 -5.82812,4.48438l10.51563,37.10938l15.60938,32.29166c0,0 -6.69026,-1.94221 -13.26897,-5.72863c-5.48926,-3.15938 -9.53695,-6.66389 -11.87741,-10.41855c-1.07256,-1.72064 -3.33853,-5.41603 -4.4065,-7.92844c-1.48753,-3.49946 -2.99759,-7.28063 -4.20649,-11.58391c-4.1006,-14.5968 -7.78751,-30.9915 -7.78751,-30.9915h-4.82812v34.35938zM392.26156,157.75792h4.73438c2.39583,0 4.25521,-0.42709 5.57813,-1.28125c1.32292,-0.85416 2.25,-2.08334 2.78125,-3.6875c0.54167,-1.61459 0.8125,-3.55729 0.8125,-5.82812c0,-3.28125 -0.59896,-5.83334 -1.79687,-7.65625c-1.19792,-1.83334 -3.40625,-2.75 -6.625,-2.75h-5.48437z" fill="#004cad"/><path d="M224.89971,201.8673v-76.67187h25.75c4.60416,0 8.39063,0.86979 11.35938,2.60938c2.96875,1.72916 5.17708,4.25 6.625,7.5625c1.45833,3.3125 2.1875,7.33854 2.1875,12.07813c0,5.92709 -0.97917,10.45313 -2.9375,13.57813c-1.95833,3.125 -4.60937,5.28646 -7.95312,6.48438c-3.34375,1.19791 -7.09896,1.79688 -11.26563,1.79688h-6.8125v32.5625zM241.85284,157.47667h5.67188c2.08334,0 3.66146,-0.38021 4.73438,-1.14062c1.07291,-0.76041 1.78125,-1.89584 2.125,-3.40625c0.35417,-1.51041 0.53125,-3.4375 0.53125,-5.78125c0,-1.94791 -0.14583,-3.66146 -0.4375,-5.14062c-0.28125,-1.48959 -0.95834,-2.67709 -2.03125,-3.5625c-1.07291,-0.88541 -2.74479,-1.32812 -5.01562,-1.32812h-5.57812z" fill="#004cad"/><path d="M278.9484,125.19542h25.74997c4.60417,0 8.39063,0.86979 11.35938,2.60938c2.96875,1.72916 5.17708,4.25 6.625,7.5625c1.45833,3.3125 2.1875,7.33854 2.1875,12.07813c0,5.92709 -0.97917,10.45313 -2.9375,13.57813c-1.95833,3.125 -4.60937,5.28646 -7.95312,6.48438c-3.34375,1.19791 -7.09896,1.79688 -11.26562,1.79688h-6.8125v32.5625h-16.9531zM295.90151,157.47667h5.67188c2.08333,0 3.66146,-0.38021 4.73438,-1.14062c1.07292,-0.76041 1.78125,-1.89584 2.125,-3.40625c0.35417,-1.51041 0.53125,-3.4375 0.53125,-5.78125c0,-1.94791 -0.14583,-3.66146 -0.4375,-5.14062c-0.28125,-1.48959 -0.95833,-2.67709 -2.03125,-3.5625c-1.07292,-0.88541 -2.74479,-1.32812 -5.01562,-1.32812h-5.57812z" fill="#004cad"/><path d="M46.14724,202.0673l14.875,-41.26562c0,0 -5.09291,-22.1327 -15.20312,-42.80625c-1.82565,-3.73311 -3.95566,-6.71394 -3.95566,-6.71394c0,0 3.19432,-0.54394 5.04079,0.07291c0.21527,0.07191 0.83756,0.94693 1.01857,1.04831c1.86771,1.04599 1.23808,2.98524 3.77977,4.99784c5.35077,4.23694 5.53408,3.80138 11.51653,11.59488c2.70455,3.52329 8.02187,17.13438 8.02187,17.13438l6.8125,-20.73437h14.10938l-13.45312,39.84375l14.96875,36.82813h-15.90625l-9.375,-22.90625l-8.23437,22.90625z" fill="#004cad"/><path d="M332.99709,201.8673v-76.67187h34.46875v11.54688h-17.51562v19.03125h13.34375v11.73438h-13.34375v22.90625h17.70313v11.45313z" fill="#004cad"/><path d="M152.50014,201.8673v-10.21875l18.73438,-55h-17.89062v-11.45312h34.54688v9.5625l-19.01562,55.65625h19.20313v11.45313z" fill="#004cad"/><path d="M196.51755,201.8673v-76.67187h16.9375v76.67188z" fill="#004cad"/><path d="M105.71082,201.8673v-76.67187h19.40625c6.69792,0 11.90625,0.83854 15.625,2.51563c3.71875,1.66666 6.33334,4.28646 7.84375,7.85938c1.52084,3.5625 2.28125,8.18229 2.28125,13.85938v27.82813c0,5.73959 -0.76041,10.42709 -2.28125,14.0625c-1.51041,3.625 -4.10937,6.29166 -7.79687,8c-3.6875,1.69791 -8.84896,2.54688 -15.48437,2.54688zM122.66394,190.13292h2.64063c2.59375,0 4.45833,-0.38021 5.59375,-1.14062c1.13541,-0.76041 1.84375,-1.89584 2.125,-3.40625c0.28125,-1.51041 0.42188,-3.40104 0.42188,-5.67187v-33.42187c0,-2.27084 -0.17187,-4.09896 -0.51562,-5.48437c-0.34375,-1.39584 -1.08334,-2.40625 -2.21875,-3.03125c-1.13541,-0.63541 -2.96875,-0.95312 -5.5,-0.95312h-2.54687z" fill="#0096ff"/><path d="M381.05843,201.9923v-76.67187h21.10938c5.17708,0 9.65625,0.56771 13.4375,1.70313c3.79167,1.13541 6.74479,3.17188 8.85938,6.10938c2.11458,2.9375 3.17188,7.08334 3.17188,12.4375c0,3.15625 -0.25521,5.96875 -0.76562,8.4375c-0.5,2.45834 -1.42708,4.58854 -2.78125,6.39063c-1.35417,1.79166 -3.29687,3.28646 -5.82812,4.48438l10.51563,37.10938l9.35938,32.29166c0,0 -14.59987,-10.52645 -18.205,-14.91012c-1.89856,-2.30857 -4.31939,-5.48496 -5.83245,-8.72017c-2.32894,-4.97971 -3.42001,-10.0988 -4.25394,-12.40716c-4.67162,-15.3537 -7.00547,-30.61358 -7.00547,-30.61358h-4.82812v34.35938zM397.26156,158.00792h4.73438c2.39583,0 4.25521,-0.42709 5.57813,-1.28125c1.32292,-0.85416 2.25,-2.08334 2.78125,-3.6875c0.54167,-1.61459 0.8125,-3.55729 0.8125,-5.82812c0,-3.28125 -0.59896,-5.83334 -1.79687,-7.65625c-1.19792,-1.83334 -3.40625,-2.75 -6.625,-2.75h-5.48437z" fill="#0096ff"/><path d="M229.89971,201.8673v-76.67187h25.75c4.60417,0 8.39063,0.86979 11.35938,2.60938c2.96875,1.72916 5.17708,4.25 6.625,7.5625c1.45833,3.3125 2.1875,7.33854 2.1875,12.07813c0,5.92709 -0.97917,10.45313 -2.9375,13.57813c-1.95833,3.125 -4.60937,5.28646 -7.95312,6.48438c-3.34375,1.19791 -7.09896,1.79688 -11.26562,1.79688h-6.8125v32.5625zM246.85284,157.47667h5.67188c2.08334,0 3.66146,-0.38021 4.73438,-1.14062c1.07292,-0.76041 1.78125,-1.89584 2.125,-3.40625c0.35417,-1.51041 0.53125,-3.4375 0.53125,-5.78125c0,-1.94791 -0.14583,-3.66146 -0.4375,-5.14062c-0.28125,-1.48959 -0.95833,-2.67709 -2.03125,-3.5625c-1.07292,-0.88541 -2.74479,-1.32812 -5.01563,-1.32812h-5.57812z" fill="#0096ff"/><path d="M283.9484,125.19542h25.74997c4.60417,0 8.39063,0.86979 11.35938,2.60938c2.96875,1.72916 5.17708,4.25 6.625,7.5625c1.45833,3.3125 2.1875,7.33854 2.1875,12.07813c0,5.92709 -0.97917,10.45313 -2.9375,13.57813c-1.95833,3.125 -4.60937,5.28646 -7.95312,6.48438c-3.34375,1.19791 -7.09896,1.79688 -11.26562,1.79688h-6.8125v32.5625h-16.9531zM300.90151,157.47667h5.67188c2.08333,0 3.66146,-0.38021 4.73438,-1.14062c1.07292,-0.76041 1.78125,-1.89584 2.125,-3.40625c0.35417,-1.51041 0.53125,-3.4375 0.53125,-5.78125c0,-1.94791 -0.14583,-3.66146 -0.4375,-5.14062c-0.28125,-1.48959 -0.95833,-2.67709 -2.03125,-3.5625c-1.07292,-0.88541 -2.74479,-1.32812 -5.01562,-1.32812h-5.57812z" fill="#0096ff"/><path d="M51.14724,202.0673l14.875,-41.26562c0,0 -5.09291,-22.1327 -15.20312,-42.80625c-1.82565,-3.73311 -3.95566,-6.71394 -3.95566,-6.71394c0,0 4.93812,2.23826 9.83913,6.11906c5.35077,4.23694 5.53408,3.80138 11.51653,11.59488c2.70455,3.52329 8.02187,17.13438 8.02187,17.13438l6.8125,-20.73437h14.10938l-13.45312,39.84375l14.96875,36.82813h-15.90625l-9.375,-22.90625l-8.23437,22.90625z" fill="#0096ff"/><path d="M337.99709,201.8673v-76.67187h34.46875v11.54688h-17.51562v19.03125h13.34375v11.73438h-13.34375v22.90625h17.70313v11.45313z" fill="#0096ff"/><path d="M157.50014,201.8673v-10.21875l18.73438,-55h-17.89062v-11.45312h34.54688v9.5625l-19.01562,55.65625h19.20313v11.45313z" fill="#0096ff"/><path d="M201.51755,201.8673v-76.67187h16.9375v76.67188z" fill="#0096ff"/><path d="M130.00804,244.0263v-30.47166h7.49665c1.35233,0 2.57238,0.12494 3.66013,0.37484c1.08774,0.24988 2.0285,0.66882 2.82227,1.2568c0.79376,0.58798 1.40378,1.38909 1.83007,2.40334c0.42628,0.99955 0.63943,2.2637 0.63943,3.79242c0,1.23474 -0.16904,2.29309 -0.50712,3.17505c-0.33808,0.86725 -0.83786,1.55813 -1.49933,2.0726c-0.64676,0.51447 -1.46258,0.85992 -2.44743,1.03631c1.20535,0.20579 2.2049,0.63207 2.99866,1.27884c0.79376,0.63207 1.38174,1.46258 1.76392,2.49154c0.39688,1.01425 0.59533,2.24899 0.59533,3.70422c0,1.45523 -0.18374,2.74142 -0.55122,3.85857c-0.36749,1.11715 -0.91135,2.05056 -1.63162,2.80022c-0.70557,0.73496 -1.59488,1.29354 -2.66792,1.67572c-1.05835,0.36749 -2.30044,0.55123 -3.72627,0.55123zM135.58644,240.12365h2.09466c1.67572,0 2.81491,-0.40423 3.4176,-1.21269c0.60267,-0.82316 0.90401,-2.08731 0.90401,-3.79242c0,-1.23474 -0.147,-2.23429 -0.44098,-2.99866c-0.27929,-0.76437 -0.74966,-1.33029 -1.41113,-1.69776c-0.66147,-0.38218 -1.54343,-0.57327 -2.64587,-0.57327h-1.91825zM135.58644,226.01231h1.87417c1.10245,0 1.95501,-0.16169 2.55768,-0.48508c0.60267,-0.33808 1.0216,-0.84521 1.2568,-1.52137c0.23519,-0.67617 0.35278,-1.52872 0.35278,-2.55768c0,-1.07305 -0.18374,-1.90356 -0.55122,-2.49153c-0.35278,-0.58798 -0.89666,-0.98486 -1.63162,-1.19064c-0.72027,-0.22049 -1.64633,-0.33073 -2.77817,-0.33073h-1.08039z" fill="#004cad"/><path d="M252.56209,244.0263l-4.3216,-30.47166h4.65234l2.53564,19.75587l3.15301,-19.66767h3.79242l3.2412,19.66767l2.49154,-19.75587h4.58618l-4.25544,30.47166h-4.52003l-3.37348,-20.41734l-3.35144,20.41734z" fill="#004cad"/><path d="M132.35994,244.0263v-30.47166h7.49665c1.35233,0 2.57238,0.12494 3.66013,0.37484c1.08774,0.24988 2.0285,0.66882 2.82227,1.2568c0.79376,0.58798 1.40378,1.38909 1.83007,2.40334c0.42628,0.99955 0.63943,2.2637 0.63943,3.79242c0,1.23474 -0.16904,2.29309 -0.50712,3.17505c-0.33808,0.86725 -0.83786,1.55813 -1.49933,2.0726c-0.64676,0.51447 -1.46258,0.85992 -2.44743,1.03631c1.20535,0.20579 2.2049,0.63207 2.99866,1.27884c0.79376,0.63207 1.38174,1.46258 1.76392,2.49154c0.39688,1.01425 0.59533,2.24899 0.59533,3.70422c0,1.45523 -0.18374,2.74142 -0.55122,3.85857c-0.36749,1.11715 -0.91135,2.05056 -1.63162,2.80022c-0.70557,0.73496 -1.59488,1.29354 -2.66792,1.67572c-1.05835,0.36749 -2.30044,0.55123 -3.72627,0.55123zM137.93833,240.12365h2.09466c1.67572,0 2.81491,-0.40423 3.4176,-1.21269c0.60267,-0.82316 0.90401,-2.08731 0.90401,-3.79242c0,-1.23474 -0.147,-2.23429 -0.44098,-2.99866c-0.27929,-0.76437 -0.74966,-1.33029 -1.41113,-1.69776c-0.66147,-0.38218 -1.54343,-0.57327 -2.64587,-0.57327h-1.91825zM137.93833,226.01231h1.87417c1.10245,0 1.95501,-0.16169 2.55768,-0.48508c0.60267,-0.33808 1.0216,-0.84521 1.2568,-1.52137c0.23519,-0.67617 0.35278,-1.52872 0.35278,-2.55768c0,-1.07305 -0.18374,-1.90356 -0.55122,-2.49153c-0.35278,-0.58798 -0.89666,-0.98486 -1.63162,-1.19064c-0.72027,-0.22049 -1.64633,-0.33073 -2.77817,-0.33073h-1.08039z" fill="#0096ff"/><path d="M254.91399,244.0263l-4.3216,-30.47166h4.65234l2.53564,19.75587l3.15301,-19.66767h3.79242l3.2412,19.66767l2.49154,-19.75587h4.58618l-4.25544,30.47166h-4.52003l-3.37348,-20.41734l-3.35144,20.41734z" fill="#0096ff"/><path d="M331.54871,244.05224v-28.58527h5.19169v11.95535h5.85358v-11.95535h5.19169c0,0 -1.25207,12.49529 -1.25207,14.50741c0,2.01211 1.25207,14.07786 1.25207,14.07786h-5.19167v-12.90682h-5.85356v12.90682z" fill="#004cad"/><path d="M275.14936,244.05224l5.70878,-28.58527h5.58467l5.70878,28.58527h-4.81936l-1.13761,-6.59819h-4.96416l-1.17899,6.59821zM281.74756,234.14462h3.88859l-1.9443,-11.99672z" fill="#004cad"/><path d="M318.80248,244.44524c-2.09597,0 -3.73691,-0.41367 -4.92279,-1.24104c-1.18587,-0.82736 -2.01324,-1.95119 -2.48208,-3.37148c-0.46883,-1.42031 -0.70325,-3.06123 -0.70325,-4.92279v-10.1972c0,-1.9443 0.23442,-3.63348 0.70325,-5.06758c0.46883,-1.44788 1.2962,-2.55792 2.48208,-3.33012c1.18587,-0.7722 2.82681,-1.1583 4.92279,-1.1583c1.97188,0 3.51628,0.33784 4.63322,1.01352c1.11694,0.66189 1.90983,1.62025 2.37866,2.87509c0.48262,1.24104 0.72394,2.68203 0.72394,4.32296v2.39935h-5.0262v-2.46138c0,-0.79979 -0.04137,-1.53061 -0.12411,-2.19251c-0.08273,-0.66189 -0.30337,-1.18587 -0.66189,-1.57199c-0.35851,-0.3861 -0.98593,-0.57916 -1.88224,-0.57916c-0.8963,0 -1.55129,0.20684 -1.96497,0.62052c-0.41367,0.41367 -0.68257,0.96526 -0.80667,1.65472c-0.11031,0.68947 -0.16547,1.47545 -0.16547,2.35798v12.4104c0,1.03421 0.08273,1.88914 0.2482,2.56482c0.16547,0.66189 0.46195,1.1652 0.88942,1.50994c0.44125,0.34474 1.04109,0.51711 1.79952,0.51711c0.86872,0 1.48235,-0.20684 1.84088,-0.62052c0.37231,-0.41367 0.59984,-0.95836 0.68258,-1.63402c0.09654,-0.68947 0.1448,-1.45478 0.1448,-2.29591v-2.58549h5.02622v2.29593c0,1.69608 -0.22752,3.19912 -0.68257,4.50911c-0.44125,1.2962 -1.22035,2.3166 -2.33729,3.06123c-1.11694,0.74463 -2.68891,1.11694 -4.71595,1.11694z" fill="#004cad"/><path d="M297.67712,244.05224v-24.73806h-4.55048v-3.84723h14.25128v3.84723h-4.46775v24.73806z" fill="#004cad"/><path d="M277.35565,244.05224l5.70878,-28.58527h5.58467l5.70878,28.58527h-4.81936l-1.13761,-6.59819h-4.96416l-1.17899,6.59821zM283.95385,234.14462h3.88859l-1.9443,-11.99672z" fill="#0096ff"/><path d="M333.75501,244.05224v-28.58527h5.19169v11.95535h5.85358v-11.95535h5.19169v28.58527h-5.19167v-12.90682h-5.85356v12.90682z" fill="#0096ff"/><path d="M321.00877,244.44524c-2.09597,0 -3.73691,-0.41367 -4.92279,-1.24104c-1.18587,-0.82736 -2.01324,-1.95119 -2.48208,-3.37148c-0.46883,-1.42031 -0.70325,-3.06123 -0.70325,-4.92279v-10.1972c0,-1.9443 0.23442,-3.63348 0.70325,-5.06758c0.46883,-1.44788 1.2962,-2.55792 2.48208,-3.33012c1.18587,-0.7722 2.82681,-1.1583 4.92279,-1.1583c1.97188,0 3.51628,0.33784 4.63322,1.01352c1.11694,0.66189 1.90983,1.62025 2.37866,2.87509c0.48262,1.24104 0.72394,2.68203 0.72394,4.32296v2.39935h-5.0262v-2.46138c0,-0.79979 -0.04137,-1.53061 -0.12411,-2.19251c-0.08273,-0.66189 -0.30337,-1.18587 -0.66189,-1.57199c-0.35851,-0.3861 -0.98593,-0.57916 -1.88224,-0.57916c-0.8963,0 -1.55129,0.20684 -1.96497,0.62052c-0.41367,0.41367 -0.68257,0.96526 -0.80667,1.65472c-0.11031,0.68947 -0.16547,1.47545 -0.16547,2.35798v12.4104c0,1.03421 0.08273,1.88914 0.2482,2.56482c0.16547,0.66189 0.46195,1.1652 0.88942,1.50994c0.44125,0.34474 1.04109,0.51711 1.79952,0.51711c0.86872,0 1.48235,-0.20684 1.84088,-0.62052c0.37231,-0.41367 0.59984,-0.95836 0.68258,-1.63402c0.09654,-0.68947 0.1448,-1.45478 0.1448,-2.29591v-2.58549h5.02622v2.29593c0,1.69608 -0.22752,3.19912 -0.68257,4.50911c-0.44125,1.2962 -1.22035,2.3166 -2.33729,3.06123c-1.11694,0.74463 -2.68891,1.11694 -4.71595,1.11694z" fill="#0096ff"/><path d="M299.88343,244.05224v-24.73806h-4.55048v-3.84723h14.25128v3.84723h-4.46775v24.73806z" fill="#0096ff"/><path d="M223.63485,244.0263v-29.09682h6.86365c2.3721,0 4.21785,0.32282 5.53724,0.96849c1.33342,0.64566 2.28087,1.64222 2.84232,2.98968c0.56145,1.33342 0.84216,3.03179 0.84216,5.09511v10.63235c0,2.10541 -0.28072,3.85992 -0.84216,5.26354c-0.56145,1.40361 -1.49484,2.4493 -2.8002,3.13708c-1.30535,0.67373 -3.09495,1.0106 -5.3688,1.0106zM228.96155,240.32077h1.60011c1.22114,0 2.09137,-0.21054 2.61071,-0.63162c0.53337,-0.43512 0.85621,-1.06675 0.96849,-1.89487c0.12632,-0.82812 0.18949,-1.83872 0.18949,-3.03179v-11.13764c0,-1.17903 -0.08422,-2.12647 -0.25265,-2.8423c-0.15439,-0.71584 -0.49829,-1.24219 -1.03165,-1.57906c-0.51934,-0.33687 -1.36852,-0.5053 -2.54755,-0.5053h-1.53695z" fill="#004cad"/><path d="M169.15455,244.0263v-29.09682h5.2846v12.16929h5.95833v-12.16929h5.2846v29.09682h-5.28458v-13.13778h-5.95831v13.13778z" fill="#004cad"/><path d="M202.71192,244.0263v-29.09682h3.70552l7.07419,16.59067v-16.59067h4.37925v29.09682h-3.51604l-7.1163,-17.39072v17.39072z" fill="#004cad"/><path d="M152.37094,244.0263v-29.09682h12.2114v3.74763h-6.88469v8.3585h5.41092v3.70552h-5.41091v9.62176h6.96892v3.66341z" fill="#004cad"/><path d="M191.63434,244.0263v-29.09682h5.24249v29.09682z" fill="#004cad"/><path d="M225.88062,244.0263v-29.09682h6.86365c2.3721,0 4.21785,0.32282 5.53724,0.96849c1.33342,0.64566 2.28087,1.64222 2.84232,2.98968c0.56145,1.33342 0.84216,3.03179 0.84216,5.09511v10.63235c0,2.10541 -0.28072,3.85992 -0.84216,5.26354c-0.56145,1.40361 -1.49484,2.4493 -2.8002,3.13708c-1.30535,0.67373 -3.09495,1.0106 -5.3688,1.0106zM231.20733,240.32077h1.60011c1.22114,0 2.09137,-0.21054 2.61071,-0.63162c0.53337,-0.43512 0.85621,-1.06675 0.96849,-1.89487c0.12632,-0.82812 0.18949,-1.83872 0.18949,-3.03179v-11.13764c0,-1.17903 -0.08422,-2.12647 -0.25265,-2.8423c-0.15439,-0.71584 -0.49829,-1.24219 -1.03165,-1.57906c-0.51934,-0.33687 -1.36852,-0.5053 -2.54755,-0.5053h-1.53695z" fill="#0096ff"/><path d="M171.40032,244.0263v-29.09682h5.2846v12.16929h5.95833v-12.16929h5.2846v29.09682h-5.28458v-13.13778h-5.95831v13.13778z" fill="#0096ff"/><path d="M204.95771,244.0263v-29.09682h3.70552l7.07419,16.59067v-16.59067h4.37925v29.09682h-3.51604l-7.1163,-17.39072v17.39072z" fill="#0096ff"/><path d="M154.61671,244.0263v-29.09682h12.2114v3.74763h-6.88469v8.3585h5.41092v3.70552h-5.41091v9.62176h6.96892v3.66341z" fill="#0096ff"/><path d="M193.88011,244.0263v-29.09682h5.24249v29.09682z" fill="#0096ff"/></g></g></svg>